<?xml version="1.0" standalone="no"?>
<!DOCTYPE svg PUBLIC "-//W3C//DTD SVG 20010904//EN"
 "http://www.w3.org/TR/2001/REC-SVG-20010904/DTD/svg10.dtd">
<svg version="1.0" xmlns="http://www.w3.org/2000/svg"
 width="294.000000pt" height="294.000000pt" viewBox="0 0 294.000000 294.000000"
 preserveAspectRatio="xMidYMid meet">
<metadata>
Created by potrace 1.10, written by Peter Selinger 2001-2011
</metadata>
<g transform="translate(0.000000,294.000000) scale(0.100000,-0.100000)"
fill="#000000" stroke="none">
<path d="M1411 2610 c-67 -53 -202 -141 -269 -174 -140 -71 -347 -138 -521
-171 -46 -8 -90 -20 -96 -25 -28 -23 -56 -409 -44 -605 17 -292 86 -508 232
-725 157 -235 348 -410 647 -592 l110 -67 127 77 c407 246 689 570 801 922 49
156 65 271 65 485 0 180 -22 435 -43 489 -6 18 -26 25 -126 45 -292 58 -585
188 -761 337 -28 24 -56 44 -61 44 -6 0 -33 -18 -61 -40z m132 -114 c166 -124
380 -219 643 -286 87 -23 160 -43 162 -45 15 -15 34 -239 34 -410 1 -226 -14
-343 -62 -487 -109 -326 -383 -643 -739 -855 l-105 -63 -61 34 c-343 188 -626
483 -754 784 -39 92 -77 233 -90 335 -22 157 -5 620 23 665 4 7 15 12 24 12
29 0 211 49 324 86 139 46 343 148 443 223 44 33 81 60 83 60 1 1 35 -23 75
-53z"/>
<path d="M1386 2413 l-78 -56 48 -13 c44 -11 52 -10 78 6 28 17 30 17 66 -1
34 -18 42 -18 89 -6 l52 13 -83 55 c-46 30 -85 55 -88 56 -3 1 -40 -24 -84
-54z"/>
<path d="M1177 2298 c-111 -47 -346 -129 -456 -158 -75 -21 -81 -24 -81 -49 0
-14 -3 -49 -6 -76 -6 -50 -6 -51 61 -135 95 -120 109 -151 109 -235 0 -53 -8
-95 -34 -172 -19 -56 -37 -100 -41 -98 -3 3 -12 25 -18 50 -10 40 -9 48 8 73
30 42 44 108 36 179 -4 35 -10 63 -14 63 -4 0 -18 -31 -30 -70 -13 -38 -25
-70 -28 -70 -3 0 -2 30 2 68 14 144 11 165 -26 217 l-34 47 -3 -153 c-6 -274
24 -448 107 -625 89 -190 265 -404 440 -535 l35 -27 39 21 c22 11 61 22 87 25
42 4 54 0 95 -28 45 -31 49 -32 74 -17 56 33 88 48 142 67 30 11 64 27 75 35
18 13 15 14 -30 15 l-49 0 84 64 c100 75 189 167 248 255 52 76 116 211 125
263 10 56 -25 191 -44 172 -5 -5 -16 -43 -24 -84 -19 -99 -43 -160 -102 -260
-65 -110 -153 -203 -272 -288 -53 -39 -108 -82 -122 -97 l-25 -27 24 -19 c13
-11 21 -22 17 -26 -10 -11 -73 24 -119 65 -23 21 -85 70 -137 109 -52 39 -120
97 -151 129 -110 117 -198 272 -223 397 -9 43 -20 86 -25 95 -16 29 -41 -47
-41 -126 0 -59 5 -79 40 -150 80 -167 187 -294 342 -408 95 -69 115 -90 73
-74 -15 6 -43 10 -63 10 -50 1 -71 14 -154 96 -86 85 -192 223 -253 329 -44
76 -46 83 -41 140 3 33 23 115 46 182 65 197 55 280 -52 425 -62 84 -111 159
-106 163 2 1 15 5 29 9 26 6 29 2 69 -92 31 -73 49 -103 70 -116 33 -19 31
-22 59 66 21 65 24 68 63 78 104 29 420 159 433 179 3 6 -3 15 -14 20 -33 18
-99 12 -149 -13 -26 -13 -105 -44 -177 -69 -209 -74 -205 -71 -205 -115 l0
-37 -35 58 c-40 66 -40 67 -20 67 23 0 217 66 355 122 109 44 131 49 176 45
28 -3 71 -15 94 -27 l42 -22 49 21 c93 41 119 39 270 -22 141 -57 318 -117
345 -117 18 0 19 3 -21 -70 l-30 -55 -3 41 -3 41 -127 43 c-70 23 -166 60
-213 81 -95 43 -166 51 -190 23 -10 -13 -10 -17 2 -25 33 -21 233 -105 343
-144 l120 -42 17 -50 c29 -85 36 -94 64 -81 18 8 33 33 55 92 41 106 54 126
80 119 16 -4 19 -11 14 -27 -12 -39 -36 -80 -80 -136 -65 -83 -98 -162 -102
-245 -4 -63 1 -85 42 -207 62 -182 61 -209 -4 -318 -144 -239 -337 -436 -552
-561 l-72 -42 -73 39 c-58 31 -83 39 -119 37 -25 -1 -49 -5 -52 -8 -10 -10 33
-41 145 -106 l97 -56 90 54 c133 80 228 154 340 262 206 201 325 390 383 611
22 83 26 123 30 310 3 118 4 223 2 234 -3 14 -11 9 -37 -28 l-33 -46 6 -118 6
-117 -25 69 c-29 80 -33 85 -43 60 -18 -44 -8 -138 21 -197 26 -55 27 -60 15
-103 l-13 -44 -18 32 c-56 105 -78 266 -45 341 9 21 41 63 70 95 80 84 90 108
81 202 l-6 78 -37 7 c-63 12 -393 126 -481 167 -79 37 -89 39 -147 33 -34 -4
-84 -12 -112 -20 -27 -7 -52 -10 -56 -7 -3 3 -48 13 -100 22 l-95 17 -93 -39z"/>
<path d="M1463 2043 c-19 -7 -151 -193 -220 -308 -135 -225 -178 -341 -171
-458 11 -171 146 -306 336 -339 175 -30 356 61 433 218 72 146 27 323 -158
622 -70 114 -132 202 -171 245 -27 28 -29 29 -49 20z m84 -200 c144 -211 225
-375 244 -493 10 -55 9 -76 -5 -122 -21 -72 -87 -147 -164 -185 -50 -24 -69
-28 -147 -28 -76 0 -99 4 -145 26 -159 74 -216 212 -159 382 42 127 284 528
309 512 4 -3 34 -44 67 -92z"/>
<path d="M1285 1498 c-29 -41 -58 -156 -51 -200 15 -90 89 -178 151 -178 22 0
19 17 -20 94 -34 67 -35 71 -35 187 0 97 -3 119 -14 119 -8 0 -22 -10 -31 -22z"/>
</g>
</svg>
