<?xml version="1.0" standalone="no"?>
<!DOCTYPE svg PUBLIC "-//W3C//DTD SVG 20010904//EN"
 "http://www.w3.org/TR/2001/REC-SVG-20010904/DTD/svg10.dtd">
<svg version="1.0" xmlns="http://www.w3.org/2000/svg"
 width="294.000000pt" height="294.000000pt" viewBox="0 0 294.000000 294.000000"
 preserveAspectRatio="xMidYMid meet">
<metadata>
Created by potrace 1.10, written by Peter Selinger 2001-2011
</metadata>
<g transform="translate(0.000000,294.000000) scale(0.100000,-0.100000)"
fill="#000000" stroke="none">
<path d="M1415 2668 c-80 -46 -106 -152 -61 -242 l24 -47 -128 -158 -128 -157
-158 -67 c-88 -36 -179 -74 -204 -83 -57 -22 -80 -41 -80 -69 0 -34 20 -45 81
-45 l58 0 15 -72 c9 -40 54 -262 101 -492 47 -230 88 -423 91 -427 3 -5 -10
-9 -29 -9 -40 0 -67 -25 -67 -62 0 -35 15 -44 82 -51 84 -8 122 -30 171 -101
29 -42 57 -69 90 -86 l47 -25 0 -55 0 -55 86 -85 86 -85 79 85 79 84 0 56 0
56 44 22 c32 15 55 37 79 74 19 29 43 61 53 70 33 29 91 48 147 48 60 0 77 12
77 51 0 33 -32 59 -72 59 -24 0 -28 3 -23 23 18 76 195 949 195 961 0 13 12
16 60 16 49 0 61 3 70 20 22 42 4 56 -143 119 -301 127 -278 112 -402 267
-152 191 -141 170 -121 211 27 57 31 117 11 168 -34 90 -131 128 -210 83z
m119 -77 c23 -25 30 -79 16 -115 l-11 -30 -19 32 c-24 39 -39 40 -70 7 -28
-30 -40 -19 -40 36 0 74 79 119 124 70z m181 -501 c18 -20 17 -20 -230 -20
-247 0 -248 0 -230 20 17 19 31 20 230 20 199 0 213 -1 230 -20z m335 -294 c0
-5 -189 -946 -195 -973 l-5 -23 -363 0 -362 0 -74 363 c-40 199 -86 424 -101
500 l-27 137 564 0 c309 0 563 -2 563 -4z m-370 -1194 c0 -2 -8 -11 -17 -18
-25 -19 -321 -19 -345 0 -10 7 -18 16 -18 20 0 4 86 6 190 5 105 -1 190 -4
190 -7z"/>
<path d="M1056 1734 c-34 -34 -10 -189 29 -189 17 0 21 9 27 65 8 80 2 117
-22 130 -14 7 -23 6 -34 -6z"/>
<path d="M1864 1725 c-13 -20 -16 -40 -12 -96 6 -77 18 -100 42 -80 18 15 39
105 34 145 -1 16 -13 35 -25 43 -20 13 -23 12 -39 -12z"/>
<path d="M1472 1727 c-6 -7 -9 -22 -6 -34 9 -32 -31 -99 -106 -178 -38 -40
-80 -96 -95 -125 -51 -101 -43 -222 21 -306 23 -29 34 -55 34 -77 0 -31 -1
-32 -44 -32 -59 -1 -86 -25 -86 -77 0 -48 15 -78 38 -78 25 0 42 20 42 47 l0
23 212 -2 213 -3 0 -24 c0 -13 8 -29 18 -35 25 -16 50 3 61 48 14 54 -14 88
-82 100 -47 9 -52 12 -52 37 0 18 13 40 39 66 81 81 81 193 -1 320 -25 39 -47
90 -58 137 -38 151 -108 242 -148 193z m88 -250 c6 -31 29 -85 53 -123 37 -61
42 -76 42 -131 0 -51 -4 -66 -24 -87 -16 -17 -35 -26 -56 -26 l-31 0 4 71 c4
60 0 82 -23 141 -33 83 -49 86 -85 13 -21 -42 -25 -64 -25 -138 l0 -88 -30 3
c-64 6 -98 152 -56 243 10 23 50 75 89 117 38 41 78 88 88 103 l18 27 12 -34
c7 -20 17 -60 24 -91z m20 -467 l0 -30 -100 0 -100 0 0 30 0 30 100 0 100 0 0
-30z"/>
</g>
</svg>
