<?xml version="1.0" standalone="no"?>
<!DOCTYPE svg PUBLIC "-//W3C//DTD SVG 20010904//EN"
 "http://www.w3.org/TR/2001/REC-SVG-20010904/DTD/svg10.dtd">
<svg version="1.0" xmlns="http://www.w3.org/2000/svg"
 width="294.000000pt" height="294.000000pt" viewBox="0 0 294.000000 294.000000"
 preserveAspectRatio="xMidYMid meet">
<metadata>
Created by potrace 1.10, written by Peter Selinger 2001-2011
</metadata>
<g transform="translate(0.000000,294.000000) scale(0.100000,-0.100000)"
fill="#000000" stroke="none">
<path d="M1512 2748 c-7 -7 -12 -43 -12 -90 l0 -78 -334 0 c-359 0 -362 0
-354 -52 2 -17 11 -24 31 -26 32 -4 31 0 11 -47 -37 -90 -55 -208 -61 -400 -6
-210 5 -307 52 -470 31 -106 56 -163 91 -200 23 -25 26 -26 47 -11 133 97 284
146 449 146 l70 0 -4 -165 -3 -165 -95 0 c-252 0 -500 73 -585 172 -48 57 -55
99 -53 303 3 177 2 181 -24 237 -32 69 -74 99 -178 127 -99 28 -104 27 -119
-14 -7 -20 -36 -61 -65 -93 -74 -81 -86 -101 -86 -148 0 -53 36 -99 90 -115
33 -10 43 -9 64 4 13 9 27 26 31 37 9 29 43 25 55 -6 14 -35 5 -63 -57 -184
-70 -137 -87 -195 -86 -300 1 -123 29 -189 162 -380 33 -46 58 -87 55 -91 -2
-5 -24 -11 -47 -14 -48 -7 -106 12 -144 47 -26 24 -68 19 -75 -10 -10 -37 11
-63 77 -94 61 -28 73 -30 149 -26 67 3 91 9 132 33 110 64 128 70 190 70 54 0
72 -6 155 -50 89 -47 98 -50 169 -50 70 0 81 3 167 49 140 74 186 73 322 -5
116 -68 215 -62 361 19 55 31 74 37 125 36 61 0 91 -11 200 -71 45 -25 60 -28
145 -28 72 0 103 4 128 18 53 29 72 53 72 92 0 49 -22 54 -73 18 -49 -35 -97
-53 -140 -53 -29 0 -29 1 38 71 79 84 119 162 137 266 16 96 2 181 -52 305
-45 103 -63 165 -49 174 5 3 9 -1 9 -9 0 -16 49 -37 87 -37 14 0 38 13 54 29
36 37 40 98 8 150 -29 48 -56 69 -115 86 -43 13 -60 14 -98 4 -62 -15 -119
-58 -151 -112 -24 -42 -25 -51 -23 -168 3 -122 2 -125 -24 -160 -36 -46 -107
-85 -184 -98 -66 -12 -360 -31 -491 -31 l-83 0 0 160 c0 94 4 160 9 160 66 0
539 -119 602 -151 22 -11 44 -17 49 -14 17 10 11 54 -14 103 -34 67 -91 251
-112 357 -36 187 -17 427 49 625 21 61 24 65 56 70 41 6 61 32 45 58 -10 16
-40 17 -348 20 l-336 2 0 84 c0 67 -3 85 -16 90 -24 9 -39 7 -52 -6z m-207
-265 c-40 -107 -75 -307 -75 -438 0 -145 32 -361 65 -447 6 -14 2 -18 -16 -18
-58 0 -251 -70 -290 -106 -14 -13 -18 -7 -43 69 -89 281 -99 546 -31 812 13
50 28 102 34 118 l11 27 176 0 c164 0 176 -1 169 -17z m790 0 c-5 -10 -19 -54
-32 -98 -76 -254 -67 -554 26 -819 17 -49 29 -91 27 -93 -1 -2 -88 18 -192 45
l-189 48 -22 99 c-59 266 -54 579 13 788 l16 47 180 0 c168 0 180 -1 173 -17z
m-1507 -550 c84 -39 108 -108 96 -278 -18 -280 5 -346 158 -438 65 -39 187
-79 298 -99 92 -16 657 -16 860 0 246 20 372 79 437 206 21 42 24 58 19 100
-4 28 -10 79 -13 114 -5 62 -5 62 34 101 44 45 77 56 130 46 66 -12 116 -88
81 -123 -10 -10 -19 -5 -43 24 l-31 36 -36 -15 c-80 -33 -86 -98 -25 -249 48
-120 61 -179 54 -259 -9 -111 -68 -217 -158 -289 -44 -35 -53 -38 -74 -28 -25
11 -24 11 43 83 96 101 117 147 117 260 0 99 -9 145 -28 145 -6 0 -31 -22 -55
-50 -58 -67 -171 -122 -312 -151 -96 -20 -137 -22 -475 -22 -488 -1 -657 21
-850 112 -106 50 -155 103 -180 194 -21 78 -43 88 -72 35 -14 -26 -18 -57 -18
-149 l0 -116 42 -84 c27 -54 66 -110 109 -157 36 -40 65 -74 63 -76 -2 -2 -18
-11 -36 -20 l-31 -16 -27 45 c-14 25 -54 87 -89 138 -89 132 -109 189 -104
302 4 87 6 96 63 215 55 115 60 130 60 193 0 63 -2 71 -28 93 -35 30 -98 32
-144 4 -34 -21 -58 -18 -67 6 -9 22 8 48 59 89 25 21 54 52 66 71 23 37 38 38
107 7z m66 -762 c30 -34 207 -116 304 -141 163 -41 276 -52 592 -57 498 -8
667 17 872 133 l61 34 -7 -47 c-3 -30 -14 -54 -26 -64 -10 -9 -63 -31 -117
-48 -217 -69 -366 -85 -763 -85 -429 0 -613 28 -815 123 -119 56 -156 104
-155 201 l1 35 16 -30 c8 -16 25 -41 37 -54z m89 -218 c103 -64 313 -110 549
-120 l148 -6 -88 -41 c-113 -53 -178 -55 -262 -8 -72 40 -160 65 -216 60 -44
-3 -45 -2 -122 76 -78 79 -78 82 -9 39z m1607 -78 c-54 -54 -56 -55 -89 -44
-61 21 -145 5 -250 -48 -84 -42 -104 -48 -156 -47 -52 0 -71 6 -143 45 l-82
46 177 7 c98 3 223 13 278 21 91 13 282 59 294 70 2 3 9 5 15 5 6 0 -14 -25
-44 -55z"/>
<path d="M810 621 c-14 -4 -69 -31 -123 -60 -85 -44 -106 -51 -155 -51 -31 0
-76 7 -99 16 -41 16 -44 16 -63 -1 -48 -43 -10 -79 101 -94 107 -16 149 -6
274 59 126 66 146 66 283 -2 99 -50 109 -53 181 -53 72 0 82 3 180 53 70 35
115 52 141 52 25 0 71 -17 141 -52 100 -51 107 -53 184 -53 77 0 84 2 180 53
134 70 160 70 292 0 l98 -53 110 0 c89 0 116 3 138 18 30 19 34 43 14 71 -13
18 -16 18 -66 1 -83 -27 -141 -18 -264 44 -104 53 -105 53 -183 50 -71 -4 -89
-9 -173 -52 -128 -65 -159 -64 -305 5 -94 44 -118 52 -171 52 -55 1 -73 -4
-166 -51 -140 -71 -170 -71 -309 -2 -106 53 -183 69 -240 50z"/>
</g>
</svg>
