<?xml version="1.0" standalone="no"?>
<!DOCTYPE svg PUBLIC "-//W3C//DTD SVG 20010904//EN"
 "http://www.w3.org/TR/2001/REC-SVG-20010904/DTD/svg10.dtd">
<svg version="1.0" xmlns="http://www.w3.org/2000/svg"
 width="294.000000pt" height="294.000000pt" viewBox="0 0 294.000000 294.000000"
 preserveAspectRatio="xMidYMid meet">
<metadata>
Created by potrace 1.10, written by Peter Selinger 2001-2011
</metadata>
<g transform="translate(0.000000,294.000000) scale(0.100000,-0.100000)"
fill="#000000" stroke="none">
<path d="M2519 2141 c-59 -16 -111 -31 -117 -35 -6 -3 -14 -37 -18 -74 l-6
-68 -83 -32 c-250 -94 -627 -148 -1115 -159 -353 -7 -652 17 -778 63 -62 23
-67 14 -65 -114 4 -219 67 -403 179 -526 l33 -36 -27 0 c-39 0 -122 42 -156
79 -36 37 -60 39 -81 7 -20 -30 -11 -51 36 -90 58 -49 129 -79 201 -84 60 -4
78 -1 177 37 150 56 197 56 334 -1 144 -59 197 -59 331 1 90 40 104 43 165 39
50 -3 86 -13 151 -43 75 -35 94 -40 160 -40 69 0 83 4 165 44 49 24 105 46
125 48 44 6 124 -16 212 -57 55 -26 74 -30 148 -30 91 0 148 18 184 58 18 20
18 23 2 47 -21 31 -40 31 -91 0 -50 -31 -106 -32 -180 -4 l-56 21 39 46 c117
140 199 323 253 564 23 107 49 320 42 348 -7 27 -33 25 -164 -9z m71 -103 c0
-69 -46 -283 -86 -405 -41 -124 -121 -267 -189 -341 -53 -57 -64 -64 -87 -59
l-26 7 45 67 c120 179 200 414 219 641 l7 82 41 11 c23 5 46 12 51 14 21 7 25
4 25 -17z m-243 -273 l-22 -90 -50 -18 c-128 -48 -476 -107 -745 -127 -195
-14 -539 -12 -730 5 -167 15 -344 45 -361 62 -5 5 -12 40 -16 78 -6 62 -5 68
11 62 50 -19 268 -48 443 -58 352 -20 802 12 1153 82 110 22 308 83 325 100
17 17 15 -3 -8 -96z m-94 -266 c-33 -63 -43 -74 -78 -86 -56 -20 -251 -59
-381 -77 -386 -53 -1008 -41 -1225 24 -64 19 -67 22 -87 67 -11 27 -24 61 -28
77 -6 25 -5 27 12 18 90 -47 567 -79 932 -62 124 6 271 15 326 21 145 14 393
56 483 82 43 12 79 19 81 15 2 -4 -14 -40 -35 -79z m-152 -223 c-31 -31 -72
-57 -139 -86 -115 -51 -149 -50 -274 6 -73 33 -92 38 -163 38 -70 0 -92 -5
-175 -39 -126 -52 -174 -52 -288 -2 -46 21 -107 41 -134 45 -28 4 115 7 318 8
396 1 581 15 786 58 57 12 105 21 107 19 3 -2 -15 -23 -38 -47z m-1441 -6 c36
-5 98 -10 138 -10 41 0 72 -4 72 -10 0 -5 -14 -10 -31 -10 -17 0 -64 -11 -105
-25 -41 -14 -77 -25 -79 -25 -10 0 -95 83 -95 92 0 5 8 7 18 4 9 -3 46 -10 82
-16z"/>
<path d="M769 1008 c-109 -39 -162 -91 -127 -126 18 -18 40 -15 104 18 35 19
82 33 115 37 51 5 63 2 140 -35 161 -78 234 -80 370 -11 71 37 93 43 144 43
51 0 72 -7 145 -44 81 -43 89 -45 171 -45 82 0 90 2 170 43 73 38 93 43 154
45 66 2 70 3 79 30 16 44 -11 62 -87 60 -52 -1 -78 -9 -156 -47 -128 -62 -181
-63 -300 -6 -115 56 -159 64 -232 46 -32 -9 -87 -30 -121 -47 -43 -21 -83 -33
-124 -37 -57 -4 -69 -1 -163 42 -129 59 -189 66 -282 34z"/>
</g>
</svg>
