<?xml version="1.0" standalone="no"?>
<!DOCTYPE svg PUBLIC "-//W3C//DTD SVG 20010904//EN"
 "http://www.w3.org/TR/2001/REC-SVG-20010904/DTD/svg10.dtd">
<svg version="1.0" xmlns="http://www.w3.org/2000/svg"
 width="294.000000pt" height="294.000000pt" viewBox="0 0 294.000000 294.000000"
 preserveAspectRatio="xMidYMid meet">
<metadata>
Created by potrace 1.10, written by Peter Selinger 2001-2011
</metadata>
<g transform="translate(0.000000,294.000000) scale(0.100000,-0.100000)"
fill="#000000" stroke="none">
<path d="M1406 2762 c-2 -4 -14 -46 -26 -92 -27 -108 -49 -157 -90 -204 -41
-46 -69 -61 -187 -98 -136 -42 -137 -72 -3 -109 88 -24 169 -74 209 -129 34
-47 42 -68 73 -180 20 -74 26 -85 47 -88 13 -2 27 0 32 5 5 5 20 53 34 107 30
117 43 144 93 192 46 45 94 70 175 90 139 35 137 67 -10 113 -54 17 -116 44
-139 60 -52 39 -96 120 -124 231 -12 47 -26 91 -32 98 -12 13 -44 16 -52 4z
m77 -295 c30 -50 103 -119 148 -139 16 -7 29 -15 28 -18 0 -3 -27 -22 -60 -44
-64 -40 -126 -115 -151 -180 l-15 -39 -30 64 c-34 72 -102 147 -163 177 l-41
20 44 26 c61 35 139 123 168 188 l24 55 11 -33 c6 -18 23 -52 37 -77z"/>
<path d="M697 2343 c-2 -4 -12 -33 -20 -63 -20 -67 -62 -111 -132 -137 -36
-14 -50 -24 -50 -38 0 -14 14 -24 50 -38 71 -26 112 -69 133 -142 16 -52 21
-60 42 -60 20 0 26 8 41 59 22 74 57 111 131 138 32 11 61 25 64 30 10 16 -16
36 -65 53 -65 21 -108 69 -130 141 -13 45 -22 60 -38 62 -12 2 -23 0 -26 -5z"/>
<path d="M1159 1895 c-267 -66 -489 -307 -555 -601 -22 -102 -15 -287 16 -394
67 -232 214 -411 424 -514 127 -63 218 -87 357 -93 258 -12 468 72 647 261
139 148 209 316 219 527 12 242 -65 443 -232 612 -119 120 -292 207 -419 210
-48 2 -61 -1 -64 -14 -2 -12 19 -24 90 -48 280 -98 462 -285 534 -551 26 -97
24 -253 -5 -355 -45 -160 -142 -315 -250 -402 -70 -56 -215 -126 -306 -149
-103 -26 -268 -24 -368 4 -221 63 -394 197 -490 381 -135 258 -123 528 33 764
98 148 230 244 418 303 89 28 112 40 110 53 -4 21 -83 25 -159 6z"/>
<path d="M1406 1831 c-7 -11 18 -33 27 -24 4 3 7 12 7 20 0 15 -26 18 -34 4z"/>
<path d="M1295 1775 c-153 -29 -327 -134 -411 -247 -62 -84 -92 -145 -115
-236 -37 -147 -20 -314 50 -457 66 -137 163 -235 301 -305 341 -172 749 -47
915 281 52 102 69 177 70 304 0 106 -3 130 -29 209 -70 212 -231 365 -458 435
-92 28 -223 34 -323 16z m173 -202 l3 -133 -41 0 -40 0 0 136 0 135 38 -3 37
-3 3 -132z m-138 -8 l0 -135 -40 -20 -40 -20 0 145 0 144 33 10 c17 5 35 10
40 10 4 1 7 -60 7 -134z m256 119 c24 -6 24 -6 24 -149 l0 -143 -40 21 -40 22
0 134 c0 118 2 132 16 127 9 -3 27 -9 40 -12z m-423 -86 c29 -21 32 -28 32
-76 0 -28 -2 -52 -4 -52 -7 0 -131 102 -131 109 0 7 51 40 63 41 4 0 22 -10
40 -22z m611 1 l36 -21 -28 -22 c-15 -12 -46 -37 -69 -55 l-43 -33 0 59 c0 53
3 60 28 75 34 22 34 22 76 -3z m-627 -173 c50 -37 56 -73 19 -116 l-24 -29
-98 91 c-55 50 -101 92 -103 94 -3 3 10 20 29 39 l33 34 51 -41 c28 -22 70
-55 93 -72z m746 72 l21 -28 -30 -31 c-16 -17 -60 -58 -98 -92 l-68 -61 -24
29 c-40 51 -33 67 64 144 48 39 93 69 101 68 8 -1 23 -14 34 -29z m-807 -250
c30 -31 31 -36 27 -94 l-5 -61 -121 -76 c-67 -42 -125 -73 -129 -69 -4 4 -11
28 -14 53 l-6 45 88 39 c152 67 148 49 34 154 l-99 92 21 44 21 44 76 -69 c42
-37 90 -83 107 -102z m883 126 l20 -39 -97 -97 -96 -97 70 -32 c38 -17 88 -39
112 -50 23 -10 42 -24 42 -31 0 -18 -20 -88 -25 -88 -3 0 -57 33 -122 74
l-118 74 -6 64 -6 63 101 102 c55 56 101 101 103 99 2 -1 12 -20 22 -42z
m-463 -19 c66 -20 117 -64 150 -131 23 -47 26 -63 22 -119 -7 -82 -43 -146
-104 -185 -115 -72 -240 -57 -327 39 -114 126 -63 328 99 391 60 23 95 24 160
5z m-615 -222 c-31 -13 -57 -23 -58 -23 -6 0 -3 86 4 124 l6 40 52 -59 53 -59
-57 -23z m1133 40 c4 -39 3 -63 -3 -63 -10 0 -103 38 -110 46 -3 2 17 27 44
54 56 57 59 55 69 -37z m-874 -219 c0 -6 -50 -44 -111 -85 -118 -78 -112 -77
-144 -17 l-15 26 118 76 117 75 17 -32 c9 -18 17 -37 18 -43z m808 -69 c12
-10 11 -18 -2 -43 -9 -17 -20 -33 -26 -37 -5 -3 -57 26 -115 65 -83 56 -105
75 -100 88 4 9 11 29 17 44 l9 26 102 -65 c56 -36 108 -71 115 -78z m-768 -95
c-3 -3 -41 -27 -84 -54 l-78 -49 -30 30 -30 30 109 75 108 74 6 -50 c3 -28 3
-53 -1 -56z m628 5 c39 -26 72 -51 72 -55 0 -3 -12 -18 -28 -33 l-27 -26 -83
52 -82 52 0 58 0 59 38 -30 c20 -16 70 -51 110 -77z m-488 -119 c0 -122 -2
-137 -16 -132 -9 3 -27 9 -40 12 -24 6 -24 6 -24 149 l0 144 40 -17 40 -17 0
-139z m277 -123 c-3 -2 -21 -7 -41 -10 l-36 -6 0 136 0 137 38 19 37 19 3
-145 c1 -80 1 -148 -1 -150z m-139 115 l-3 -133 -37 -3 -38 -3 0 135 0 136 40
0 41 0 -3 -132z m-270 -18 c1 -35 -2 -60 -8 -60 -5 0 -32 12 -59 27 l-49 28
47 32 c25 17 51 32 56 32 6 1 11 -26 13 -59z m547 14 c14 -9 25 -20 25 -24 0
-4 -22 -19 -50 -34 l-50 -27 0 67 0 66 25 -16 c14 -9 36 -23 50 -32z"/>
<path d="M1352 1273 c-18 -9 -45 -32 -60 -51 -23 -30 -27 -45 -27 -103 0 -75
16 -106 75 -146 39 -27 125 -31 169 -9 69 36 111 118 97 188 -22 111 -151 172
-254 121z m139 -63 c24 -13 49 -61 49 -96 0 -16 -12 -38 -34 -60 -46 -46 -104
-48 -147 -5 -64 65 -20 171 71 171 23 0 50 -5 61 -10z"/>
<path d="M895 1640 c-8 -14 3 -30 21 -30 8 0 14 9 14 20 0 21 -24 28 -35 10z"/>
<path d="M1923 1634 c-9 -23 11 -38 26 -20 13 16 7 36 -10 36 -5 0 -12 -7 -16
-16z"/>
<path d="M683 1134 c-7 -19 11 -39 26 -30 16 10 13 33 -4 40 -9 3 -18 -1 -22
-10z"/>
<path d="M2135 1130 c-8 -14 3 -30 21 -30 8 0 14 9 14 20 0 21 -24 28 -35 10z"/>
<path d="M907 624 c-14 -14 -7 -35 11 -32 9 2 17 10 17 17 0 16 -18 25 -28 15z"/>
<path d="M1924 609 c-8 -14 11 -33 25 -25 16 10 13 36 -3 36 -8 0 -18 -5 -22
-11z"/>
<path d="M1410 400 c0 -11 7 -20 15 -20 8 0 15 9 15 20 0 11 -7 20 -15 20 -8
0 -15 -9 -15 -20z"/>
</g>
</svg>
