<?xml version="1.0" standalone="no"?>
<!DOCTYPE svg PUBLIC "-//W3C//DTD SVG 20010904//EN"
 "http://www.w3.org/TR/2001/REC-SVG-20010904/DTD/svg10.dtd">
<svg version="1.0" xmlns="http://www.w3.org/2000/svg"
 width="294.000000pt" height="294.000000pt" viewBox="0 0 294.000000 294.000000"
 preserveAspectRatio="xMidYMid meet">
<metadata>
Created by potrace 1.10, written by Peter Selinger 2001-2011
</metadata>
<g transform="translate(0.000000,294.000000) scale(0.100000,-0.100000)"
fill="#000000" stroke="none">
<path d="M1557 2526 c-84 -30 -139 -84 -342 -331 -149 -182 -255 -285 -420
-409 -166 -125 -279 -236 -316 -312 -26 -53 -26 -43 -14 -323 5 -137 7 -148
38 -210 39 -79 134 -183 267 -290 189 -152 311 -211 438 -211 167 0 278 76
462 315 111 145 204 241 443 457 287 261 334 336 306 487 -7 42 -12 114 -11
160 3 77 1 89 -28 148 -43 87 -175 223 -329 339 -227 170 -372 223 -494 180z
m179 -92 c62 -21 156 -79 290 -180 168 -126 294 -272 294 -342 0 -91 -114
-231 -300 -370 -159 -119 -336 -298 -440 -447 -154 -218 -250 -290 -385 -290
-97 1 -168 38 -325 171 -291 245 -315 275 -315 379 1 113 57 184 290 358 187
141 236 187 392 376 185 223 277 319 328 342 49 23 110 24 171 3z m600 -816
c-3 -18 -21 -58 -39 -88 l-32 -55 -3 72 c-3 69 -1 75 30 117 l33 44 9 -28 c5
-16 6 -44 2 -62z m-123 -122 l-6 -78 -106 -94 c-119 -107 -119 -107 -120 4
l-1 62 62 48 c34 26 87 68 117 93 31 26 57 46 58 45 1 -1 -1 -37 -4 -80z
m-378 -416 c-101 -103 -105 -106 -105 -76 0 17 -3 54 -6 82 l-7 52 109 107
109 107 3 -82 3 -83 -106 -107z m-1116 -150 c-1 -25 -4 -58 -8 -74 l-6 -30
-47 53 c-61 67 -108 162 -108 215 l0 41 85 -80 c83 -78 85 -81 84 -125z m962
68 l2 -76 -84 -110 c-46 -61 -87 -111 -91 -112 -5 0 -8 33 -8 73 0 73 0 74 49
135 27 33 66 85 87 116 21 30 40 54 41 53 1 -2 3 -37 4 -79z m-843 -116 c37
-31 85 -70 107 -86 l40 -29 2 -78 c1 -44 -1 -79 -4 -79 -8 0 -107 74 -171 128
l-53 45 2 79 c1 43 4 78 6 78 2 0 34 -26 71 -58z m597 -262 c-19 -21 -105 -69
-145 -80 l-30 -9 0 88 0 87 45 13 c24 7 66 28 92 47 l48 34 3 -81 c2 -63 -1
-85 -13 -99z m-335 94 c19 -7 52 -13 73 -14 l37 0 0 -86 0 -87 -49 6 c-27 3
-67 15 -89 26 l-39 20 -2 82 c-2 75 0 81 16 74 10 -4 34 -14 53 -21z"/>
<path d="M1651 2274 c-41 -29 -16 -104 35 -104 29 0 44 19 44 56 0 47 -42 73
-79 48z"/>
<path d="M1924 2115 c-4 -9 -2 -21 4 -27 16 -16 47 -5 47 17 0 26 -42 34 -51
10z"/>
<path d="M1415 2100 c-8 -25 1 -40 24 -40 24 0 45 25 37 45 -8 23 -53 19 -61
-5z"/>
<path d="M1715 1975 c-14 -13 -25 -28 -25 -33 0 -21 43 -62 65 -62 51 0 73 62
35 100 -26 26 -46 25 -75 -5z"/>
<path d="M2026 1915 c-11 -29 -6 -82 8 -95 43 -35 99 24 74 78 -16 33 -71 44
-82 17z"/>
<path d="M1490 1855 c-16 -19 -6 -45 19 -45 23 0 35 28 20 46 -15 18 -24 18
-39 -1z"/>
<path d="M1237 1848 c-42 -23 -39 -90 3 -103 26 -8 67 11 75 35 13 42 -41 89
-78 68z"/>
<path d="M1884 1675 c-16 -41 27 -60 50 -22 8 14 8 20 -4 27 -22 14 -40 12
-46 -5z"/>
<path d="M1611 1644 c-24 -31 -25 -35 -9 -68 16 -37 45 -42 74 -15 29 27 31
62 4 89 -27 27 -44 25 -69 -6z"/>
<path d="M982 1624 c-31 -22 -29 -62 3 -70 31 -8 55 10 55 42 0 33 -31 47 -58
28z"/>
<path d="M1278 1545 c-22 -49 30 -99 76 -73 19 11 22 68 4 86 -22 22 -67 14
-80 -13z"/>
<path d="M758 1453 c-40 -47 -27 -93 25 -93 39 0 57 15 57 48 0 56 -49 83 -82
45z"/>
<path d="M1554 1336 c-9 -37 2 -58 27 -54 49 7 50 69 1 76 -16 2 -23 -3 -28
-22z"/>
<path d="M1039 1340 c-26 -15 -32 -58 -14 -87 37 -55 125 0 94 59 -20 38 -47
47 -80 28z"/>
<path d="M1313 1238 c-33 -41 -19 -98 27 -113 43 -14 79 59 52 102 -12 19 -66
27 -79 11z"/>
<path d="M791 1201 c-9 -15 -7 -23 5 -36 20 -20 46 -2 42 29 -4 28 -34 32 -47
7z"/>
<path d="M1094 1046 c-10 -26 4 -48 28 -44 17 2 23 10 23 28 0 18 -6 26 -23
28 -13 2 -25 -3 -28 -12z"/>
</g>
</svg>
